<svg xmlns="http://www.w3.org/2000/svg" width="14.8" height="16">
  <path d="M14.3 9a2.8 2.8 0 00.5-1.6 2.5 2.5 0 00-2.5-2.5h-1.7a4.2 4.2 0 00.5-1.8 4 4 0 00-.4-1.8 2.1 2.1 0 00-1-1A3.3 3.3 0 008.4 0a1.2 1.2 0 00-.9.4 2.3 2.3 0 00-.6 1l-.3 1.2a1.6 1.6 0 01-.3.8l-1 1.3a8.5 8.5 0 01-1.3 1.5H1.2A1.2 1.2 0 000 7.4v6.1a1.2 1.2 0 001.2 1.3H4a7.1 7.1 0 011.3.4l2.1.6a7.8 7.8 0 001.8.2h1.3a3 3 0 002.2-.8 2.7 2.7 0 00.8-2 2.7 2.7 0 00.5-1.8 3 3 0 000-.4 2.8 2.8 0 00.4-1.4 2.5 2.5 0 00-.1-.7zm-12 4.4a.6.6 0 11.2-.5.6.6 0 01-.2.5zm11-5.2q-.2.4-.5.4a1.3 1.3 0 01.3.5 1.7 1.7 0 010 .5 1.5 1.5 0 01-.5 1.2 1.3 1.3 0 01.2.6 1.6 1.6 0 01-.1.7 1 1 0 01-.5.5 3.3 3.3 0 010 .6q0 1.6-1.8 1.6H9.2A10.6 10.6 0 016 14l-.2-.1-.4-.2H5q-.3 0-.4-.2h-.3a2 2 0 00-.3 0h-.3V7.3H4a.8.8 0 00.3-.1 1.6 1.6 0 00.4-.3l.4-.3a5.5 5.5 0 00.4-.4l.3-.4.3-.4.2-.3.8-.9a2.4 2.4 0 00.5-1L8 2a1.6 1.6 0 01.4-.8 1.4 1.4 0 011.2.5A2.5 2.5 0 019.8 3a4 4 0 01-.4 1.5 4 4 0 00-.5 1.6h3.4a1.2 1.2 0 01.9.3 1.2 1.2 0 01.3.9 1.9 1.9 0 01-.2.8z" fill="rgba(0,0,0,0.75)"/>
</svg>
