<svg viewBox="0 0 554.2 289.3" fill="#062594">
  <path d="M132 14H87l-1 32h46V14M53 14H8c0 31-3 103-8 216h43c0-28 4-100 10-216M129 70H85c-1 72-3 125-6 160h47l3-160M153 69l-5 33h23l-4 128h45l1-128h29l7-33h-37v-5c0-13 2-21 5-24 4-3 17-4 38-4l6-30h-39c-16 1-28 6-36 14-8 7-13 22-13 45v4h-20M387 94a72 72 0 00-60-26 85 85 0 00-88 82c-2 25 4 45 19 60 13 14 33 22 57 23 22 0 42-2 61-6l6-33c-15 7-33 10-56 10-20 0-33-6-39-18-3-7-4-14-4-21l1-10h117l1-3c1-24-4-43-15-58zm-89 10c7-7 17-11 28-11 12 0 21 5 27 14 5 7 7 15 6 24l-1 4h-72c1-12 5-23 12-31M478 114l1-43h-51l-1 43h51M538 46c-10-24-17-40-21-46h-29c13 25 22 52 25 81 2 15 3 36 2 63a285 285 0 01-42 145h33a314 314 0 0032-62 257 257 0 000-181M423 189l-2 42h51l1-42h-50"/>
</svg>
