<svg viewBox="0 0 32.83 24"><path d="M26.58 7.67h-2.07l.63-7.15V.48c0-.02 0 0 0 0a.48.48 0 00-.3-.44h-.03l-.04-.02h-9.96a.48.48 0 000 .97h9.32l-.96 10.99-.24 2.77H6.23l.27-2.89h3.18a.48.48 0 000-.96H6.6l.6-6.1h5.06a.48.48 0 100-.95H7.28L7.56.98h5.33a.48.48 0 000-.96H7.12a.48.48 0 00-.47.38v.04c0 .02 0 0 0 0l-.34 3.4H.48a.48.48 0 000 .96h5.74l-.6 6.1h-1.7a.48.48 0 000 .96h1.62l-.33 3.31-.5 5.13v.09c0 .02 0 0 0 0l.01.04v.06a.48.48 0 00.12.2h.02a.48.48 0 00.1.08l.04.02.04.01.04.01h2.26a3.66 3.66 0 007.26 0h7.71a3.66 3.66 0 007.26 0h2.28l.02-.01.02-.01h.02l.02-.02h.02l.02-.02.02-.01.02-.02.01-.01.02-.02.01-.01.02-.02.01-.01.02-.03h.01l.02-.05.02-.04.01-.04.01-.02v-.02-.02-.02c.03-.17.4-3.19.57-5.14v-.02c.05-.56.08-1.03.08-1.33a6.26 6.26 0 00-6.24-6.25zm-2.15.97h1.97l-.25 2.88h-1.97zm-13.46 14.4a2.7 2.7 0 112.7-2.7 2.7 2.7 0 01-2.7 2.7zm14.97 0a2.7 2.7 0 112.7-2.7 2.7 2.7 0 01-2.7 2.7zm5.34-3.19h-1.71a3.66 3.66 0 00-7.26 0H14.6a3.66 3.66 0 00-7.26 0H5.72l.4-4.16H23.43l.04-.01h.04l.02-.01.03-.01.02-.01.02-.01.02-.01.02-.01.01-.02.02-.01.02-.01.02-.02.01-.01.02-.02.01-.02.02-.02v-.02l.02-.02.01-.01.01-.03.01-.02v-.02l.02-.02v-.02-.03-.02-.02l.25-2.77h2.49a3.44 3.44 0 012.84 1.57 3.95 3.95 0 002.33 1.6c-.14 1.47-.36 3.36-.46 4.2zm.55-5.17a3.15 3.15 0 01-1.68-1.26 4.52 4.52 0 00-3.04-1.87l.25-2.86a5.3 5.3 0 014.51 5.23c0 .19-.01.45-.04.76z"/><path d="M11.03 18.02a1.94 1.94 0 101.95 1.94 1.95 1.95 0 00-1.95-1.94zm0 2.83a.88.88 0 11.89-.89.89.89 0 01-.89.89z"/><path d="M25.82 18.02a1.94 1.94 0 101.94 1.94 1.95 1.95 0 00-1.94-1.94zm0 2.83a.88.88 0 11.88-.89.89.89 0 01-.88.89z"/><path d="M5.02 7.64h-2.6a.53.53 0 000 1.06h2.6a.53.53 0 000-1.06z"/></svg>
