<svg viewBox="0 0 750 471">
  <path d="M53 28c-13 0-24 11-24 24v367c0 13 11 24 24 24h644c13 0 24-11 24-24V52c0-13-11-24-24-24H53zm0-28h644c29 0 53 23 53 52v367c0 29-24 52-53 52H53c-29 0-53-23-53-52V52C0 23 24 0 53 0z"/>
  <path d="M283 330l31-187h51l-31 187zm235-183c-11-3-26-8-46-8-50 0-86 26-86 62 0 27 25 42 44 51 20 9 27 15 27 23 0 13-16 18-31 18-20 0-31-3-48-10l-6-2-7 41c12 6 34 10 56 10 54 0 89-25 89-64 0-21-13-37-43-50-17-9-28-15-28-23s9-17 29-17c17 0 29 4 38 8l5 2 7-41m131-4h-40c-12 0-21 4-26 16l-76 171h53l11-28h65l7 28h47l-41-187zm-63 121l20-52 7-18 4 16 11 54h-42zM239 143l-50 128-5-26c-9-30-38-62-70-79l45 164h54l80-187h-54"/>
  <path d="M143 143H61l-1 4c64 16 106 53 124 98l-18-86c-3-12-12-15-23-16"/>
</svg>
