<svg viewBox="0 0 24 24"><path d="M23.59 21.53h-1.24V13.7a.41.41 0 00-.75-.24l-5.77 8.24a.41.41 0 00.34.65h5.36v1.24a.41.41 0 10.82 0v-1.24h1.24a.41.41 0 100-.82zm-2.06 0h-4.57L21.53 15z"/><path d="M16.47 23.18h-4.88l4.53-5.35a.44.44 0 00.03-.03 2.87 2.87 0 00-.65-3.9 3.3 3.3 0 00-5.22 2.68.41.41 0 10.83 0 2.47 2.47 0 013.91-2 2.04 2.04 0 01.46 2.74l-5.1 6a.41.41 0 00.32.68h5.77a.41.41 0 000-.83z"/><path d="M10.8 21.14a.4.4 0 00-.38-.42 9.97 9.97 0 01-9.6-9.56H2.4a.4.4 0 100-.8H.81A9.96 9.96 0 0110.4.81V2a.4.4 0 00.8 0V.81a9.97 9.97 0 019.58 9.37l-1.56-1.55a.4.4 0 00-.57.56l2.24 2.22a.4.4 0 00.15.12l.05.01a.4.4 0 00.09.02h.02a.39.39 0 00.09-.02.38.38 0 00.05 0 .4.4 0 00.14-.1l2.27-2.25a.4.4 0 00-.57-.57l-1.6 1.6A10.77 10.77 0 0010.83 0L10.8 0h-.03A10.76 10.76 0 00.01 10.74l-.01.03v.03a10.77 10.77 0 0010.4 10.73.4.4 0 00.4-.38z"/><path d="M16.3 5.37a.41.41 0 00-.58 0L11.3 9.8a1.3 1.3 0 00-1.05 0l-2.1-2.1a.41.41 0 00-.58.58l2.1 2.1a1.23 1.23 0 102.22 0l4.42-4.43a.41.41 0 000-.58zm-5.24 5.83a.42.42 0 01-.58 0 .41.41 0 11.58 0z"/></svg>
