<svg viewBox="0 0 29.6 24"><path d="M23.47 5.12H6.13a.45.45 0 000 .9h17.34a.45.45 0 000-.9z"/><path d="M23.47 9.84H6.13a.45.45 0 000 .9h17.34a.45.45 0 000-.9z"/><path d="M17.79 12.9h-5.97a.45.45 0 100 .9h5.97a.45.45 0 100-.9z"/><path d="M23.36 7.47H10.42a.45.45 0 000 .9h12.94a.45.45 0 000-.9z"/><path d="M8.7 7.47H6.35a.45.45 0 100 .9H8.7a.45.45 0 100-.9z"/><path d="M27.3 4.52a.52.52 0 00-.37-.16 1.65 1.65 0 01-1.63-1.6.54.54 0 00-.54-.53H4.74a.54.54 0 00-.54.52 1.67 1.67 0 01-1.55 1.61.54.54 0 00-.51.55v11.54a.54.54 0 00.5.55 1.67 1.67 0 011.56 1.6.54.54 0 00.54.53h12.75a.45.45 0 000-.89H5.03A2.52 2.52 0 003 16.14V5.22a2.52 2.52 0 002.03-2.1h19.44a2.53 2.53 0 002.13 2.1v7.6a.43.43 0 10.86 0v-7.9a.56.56 0 00-.16-.4z"/><path d="M28.4 0H1.2A1.2 1.2 0 000 1.2v18.36a1.2 1.2 0 001.2 1.2h18.22l-.65 1.35a.52.52 0 00.55.73l1.2-.2.67 1.1a.52.52 0 00.44.25h.03a.52.52 0 00.44-.3l1.16-2.43 1.16 2.44a.52.52 0 00.44.3h.03a.52.52 0 00.44-.26l.67-1.08 1.2.19a.52.52 0 00.55-.73l-.65-1.36h1.3a1.2 1.2 0 001.2-1.2V1.2A1.2 1.2 0 0028.4 0zm-6.8 22.75l-.45-.75a.51.51 0 00-.53-.24l-.77.12.81-1.7a1.55 1.55 0 001.25.46.68.68 0 01.46.12 1.54 1.54 0 00.14.09zm1.77-2.58a.68.68 0 01-.2 0 .68.68 0 01-.29-.12 1.55 1.55 0 00-.9-.28h-.15a.68.68 0 01-.68-.39 1.54 1.54 0 00-.2-.32v-.01l-.02-.02-.02-.02a1.54 1.54 0 00-.52-.39.68.68 0 01-.4-.68 1.55 1.55 0 00-.27-1.04.68.68 0 010-.78 1.55 1.55 0 00.28-1.04.68.68 0 01.4-.68 1.55 1.55 0 00.75-.77.68.68 0 01.68-.39 1.55 1.55 0 001.05-.28.68.68 0 01.78 0 1.55 1.55 0 001.04.28.68.68 0 01.68.4 1.55 1.55 0 00.76.76.68.68 0 01.4.68 1.55 1.55 0 00.28 1.04.68.68 0 010 .78 1.55 1.55 0 00-.28 1.04.68.68 0 01-.4.68 1.54 1.54 0 00-.52.4l-.02.01v.02l-.02.01a1.54 1.54 0 00-.2.33.68.68 0 01-.68.39 1.55 1.55 0 00-1.04.28.68.68 0 01-.3.11zm2.53 1.58a.51.51 0 00-.52.25l-.46.74-.9-1.9a1.55 1.55 0 00.13-.08.68.68 0 01.46-.13 1.55 1.55 0 001.25-.45l.81 1.7zm2.83-2.2a.34.34 0 01-.34.34h-1.7l-.23-.47.04-.02a1.55 1.55 0 00.9-1.55.68.68 0 01.12-.45 1.55 1.55 0 000-1.8.68.68 0 01-.12-.45 1.55 1.55 0 00-.9-1.55.68.68 0 01-.34-.34 1.55 1.55 0 00-1.55-.9.68.68 0 01-.45-.12 1.55 1.55 0 00-1.8 0 .68.68 0 01-.45.12 1.55 1.55 0 00-1.55.9.68.68 0 01-.34.34 1.55 1.55 0 00-.9 1.55.68.68 0 01-.12.46 1.55 1.55 0 000 1.79.68.68 0 01.12.45 1.55 1.55 0 00.9 1.55l.04.02-.23.47H1.2a.34.34 0 01-.33-.34V1.2A.34.34 0 011.2.87H28.4a.34.34 0 01.34.33z"/><path d="M23.05 13.7a2.77 2.77 0 102.77 2.77 2.78 2.78 0 00-2.77-2.78zm0 4.65a1.88 1.88 0 111.88-1.88 1.88 1.88 0 01-1.88 1.88z"/></svg>
