<svg viewBox="0 0 24 24" fill="#675dac">
  <path d="M23.2 13.9c.7-6-.4-9.8-2.3-11.6-3-2.9-13.5-3.3-17.2.2C2 4.2 1.5 6.7 1.4 9.8c0 3.1-.1 9 5.3 10.6v2.4s0 1 .6 1.2c.7.2 1-.3 3.3-3 3.7.4 6.5-.3 6.9-.5.7-.2 5-.8 5.7-6.6zm-12.3 5.5L8 23c-.3.2-.6.2-.6-.3v-4c-4.6-1.3-4.3-6.3-4.2-9 0-2.5.5-4.6 1.9-6C8.2.6 17.4 1.3 19.7 3.5c2.8 2.5 1.8 9.6 1.8 9.9-.6 4.8-4 5.1-4.6 5.3-.3.1-2.8.8-6 .6z"/>
  <path d="M12.2 4.3c-.4 0-.4.6 0 .6 3 0 5.5 2.1 5.5 6 0 .3.6.3.6 0 0-4.2-2.7-6.6-6-6.6z"/>
  <path d="M16.2 10.2c0 .4.5.4.5 0a4 4 0 00-4-4.3c-.3 0-.4.5 0 .6 2.3.1 3.5 1.7 3.5 3.7zM15.5 12.8c-.5-.3-1-.1-1.2.1l-.4.6c-.2.3-.7.3-.7.3-3-.8-3.8-4-3.8-4s0-.4.3-.6l.5-.5c.3-.2.5-.7.2-1.2C9.6 6 9 5.7 8.9 5.3c-.3-.3-.7-.4-1-.2h-.1c-.9.5-1.8 1.5-1.5 2.4.5 1 1.5 4.4 4.5 6.8 1.4 1.2 3.7 2.4 4.6 2.7 1 .3 1.9-.7 2.4-1.6.2-.4.1-.8-.2-1l-2-1.6z"/>
  <path d="M13.2 8.1c1 0 1.4.6 1.4 1.6 0 .4.6.4.6 0 0-1.4-.7-2.1-2-2.2-.4 0-.4.6 0 .6z"/>
</svg>
