<svg viewBox="0 0 750 471">
  <path d="M697 471H53c-29 0-53-23-53-52V52C0 23 24 0 53 0h644c29 0 53 23 53 52v367c0 29-24 52-53 52zM53 28c-13 0-24 11-24 24v367c0 13 11 24 24 24h644c13 0 24-11 24-24V52c0-13-11-24-24-24H53z"/>
  <path d="M287 409v-23c0-9-6-15-15-15-4 0-9 1-13 7-2-4-6-7-12-7a12 12 0 00-11 6v-5h-8v37h8v-21c0-6 4-9 9-9 6 0 8 3 8 9v21h8v-21c0-6 4-9 10-9 5 0 8 3 8 9v21h8zm45-18v-19h-8v5c-2-4-6-6-12-6-10 0-18 8-18 20s8 19 18 19c6 0 10-2 12-5v4h8v-18zm-30 0c0-7 4-12 11-12s12 5 12 12c0 6-5 11-12 11s-11-5-11-11zm203-20a21 21 0 018 2 19 19 0 016 4 19 19 0 014 6 21 21 0 010 15 19 19 0 01-4 6 19 19 0 01-6 5 22 22 0 01-16 0 19 19 0 01-7-5 19 19 0 01-4-6 21 21 0 010-15 19 19 0 014-6 19 19 0 017-4 21 21 0 018-2zm0 8a12 12 0 00-5 1 11 11 0 00-4 2 11 11 0 00-2 4 13 13 0 000 9 11 11 0 002 4 11 11 0 004 3 13 13 0 009 0 11 11 0 004-3 11 11 0 002-4 13 13 0 000-9 11 11 0 00-2-4 11 11 0 00-4-2 12 12 0 00-4-1zm-129 12c0-12-7-20-18-20-10 0-18 8-18 20 0 11 8 19 19 19 6 0 11-1 15-5l-4-6a18 18 0 01-11 4c-5 0-9-3-11-9h28v-3zm-28-4c1-5 5-9 10-9s9 4 10 9h-20zm62-6a24 24 0 00-12-3c-4 0-7 2-7 5 0 2 3 3 7 3l3 1c8 1 13 4 13 11s-6 12-16 12c-7 0-12-2-17-5l4-6a20 20 0 0013 4c5 0 8-2 8-5 0-2-2-3-7-4h-3c-9-1-13-5-13-11 0-7 6-12 15-12 6 0 12 1 15 4l-3 6zm39-2h-13v17c0 4 1 6 5 6a15 15 0 007-2l2 7a19 19 0 01-10 3c-9 0-13-5-13-14v-17h-7v-7h7v-11h9v11h13v7zm28-8l5 1-2 8a13 13 0 00-5-1c-5 0-8 3-8 9v21h-8v-37h8v5a11 11 0 0110-6zm78-270c-49-48-125-54-180-15a140 140 0 100 228 140 140 0 00220-114 139 139 0 00-40-99zM375 292a122 122 0 010-183 122 122 0 010 183zm-81 30a122 122 0 110-244 120 120 0 0167 20 140 140 0 000 204 120 120 0 01-67 20zm162 0a120 120 0 01-67-20 140 140 0 000-204 120 120 0 0167-20 122 122 0 110 244z"/>
</svg>
