<svg viewBox="0 0 32 32">
  <path d="M32 12a.5.5 0 00-.2-.4L25.5 7a.5.5 0 10-.5.7l5.7 4.3-6.2 3.9v-7a.5.5 0 00-.2-.3l-8-6a.5.5 0 00-.6 0l-8 6a.5.5 0 00-.2.4v6.9l-6.2-4L16 1.2l7.2 5.3a.5.5 0 10.6-.7L16.3 0a.5.5 0 00-.6 0L.2 11.6a.5.5 0 00-.2.4v19.5a.5.5 0 00.5.5h31a.5.5 0 00.5-.5V12zM8.5 9.1L16 3.6l7.5 5.6v7.3L16 21.2l-7.5-4.7zM.9 12.8l14.2 9L1 30.7zm30.2 18.3H2l29-18.3z"/>
  <path d="M16 5.4a2.1 2.1 0 102.1 2.2A2.1 2.1 0 0016 5.4zm0 3.3a1.1 1.1 0 111.1-1.1A1.1 1.1 0 0116 8.7z"/>
  <path d="M19.6 10.4a.5.5 0 00-.7 0L12.4 17a.5.5 0 10.7.8l6.5-6.6a.5.5 0 000-.7z"/>
  <path d="M18.5 14.4A1.6 1.6 0 1020 16a1.6 1.6 0 00-1.6-1.6zm0 2.2a.6.6 0 11.6-.6.6.6 0 01-.6.6z"/>
  <path d="M13.5 10.4a1.6 1.6 0 101.6 1.6 1.6 1.6 0 00-1.6-1.6zm0 2.2a.6.6 0 11.6-.6.6.6 0 01-.6.6z"/>
</svg>
