<svg viewBox="0 0 562.6 130.1">
  <path d="M39 93l-8 37H0L23 2h28l-1 11 7-6c10-6 20-8 31-4 10 3 16 11 18 22 4 24-2 45-21 61-10 8-29 14-46 7zm35-53c0-7-2-11-6-13s-10 0-14 5a30 30 0 00-6 14l-4 20a4 4 0 002 3c4 4 11 4 16-1 9-8 11-18 12-28zM197 93h-29l1-16-3 5c-10 13-26 17-39 10-9-5-14-13-15-23-2-20 4-38 19-52 9-10 21-14 35-16s28-1 41 3c2 1 3 1 3 4l-10 51-3 30a33 33 0 000 4zm-23-68c-5-1-10 0-14 2-9 6-17 23-15 34 1 4 2 7 6 9a9 9 0 0011-4l5-9 5-20 2-12zM416 61c1 4 4 7 7 8a33 33 0 0018 2l20-5v5l2 15c0 2-1 3-3 4a81 81 0 01-24 5c-8 1-15 1-23-1-16-3-26-15-27-31s2-31 12-43c13-16 37-24 56-17 12 3 20 13 20 26s-6 22-19 27c-10 4-20 4-30 5h-9zm3-23h8a124 124 0 0014-3c2-1 3-4 3-6s-2-4-5-5c-9-2-18 4-20 14zM334 94l7-33c-8 4-17 4-25 4-7-1-14-3-19-9-6-6-6-14-5-21l6-30 2-2h30l-3 13-2 16c-1 8 4 10 10 10a20 20 0 004 0c5-1 6-3 7-7l5-29 2-3h29l1 1-3 16-13 69c-1 5-1 5-7 5h-26zM291 3l-8 24c-7-1-13-2-19 0-14 4-20 17-19 29 0 10 8 16 19 14l13-3v21c0 3-1 4-3 4a118 118 0 01-12 3c-8 1-16 1-24-1-16-4-25-16-27-32-1-17 4-32 16-44 10-10 22-15 36-17a65 65 0 0124 1l4 1zM563 2l-4 17c-1 5-1 6-7 6h-18c-2 0-3 1-3 3l-8 39-5 26h-31l12-68h-23l1-6 3-14c1-2 1-3 3-3h78a15 15 0 012 0z"/>
</svg>
