<svg viewBox="0 0 30 24"><path d="M29.93 17.14a1.94 1.94 0 00-1.62-1.31V5.43h.99a.48.48 0 00.5-.45V.45a.48.48 0 00-.5-.45H7.45a.48.48 0 00-.5.45v4.53a.48.48 0 00.5.46h1v9.05h-.5a6.86 6.86 0 00-3.48.93v-2.29a.48.48 0 00-.5-.45H.5a.48.48 0 00-.5.45v10.42a.48.48 0 00.5.45h3.47a.48.48 0 00.5-.45v-2.29a6.86 6.86 0 003.48.93h8.15a7.14 7.14 0 001.67-.2l10.76-2.63a1.8 1.8 0 001.4-2.22zM7.95.91H28.8v3.62H7.95zm1.49 4.52h17.88v10.48l-5.77 1.4a1.95 1.95 0 00-1.31-1.05l-6.7-1.63a4.93 4.93 0 00-1.15-.14H9.44zM3.48 23.1H.99v-9.52h2.49zm24.8-4.6L17.51 21.1a6.03 6.03 0 01-1.42.17H7.95a5.78 5.78 0 01-3.28-1l-.2-.13v-3.62l.2-.14a5.78 5.78 0 013.28-1h4.44a3.83 3.83 0 01.9.1l6.7 1.64a.94.94 0 01.72.78.42.42 0 00.02.06.41.41 0 00-.01.06.7.7 0 01-.03.22.98.98 0 01-.96.67 1.07 1.07 0 01-.26-.03l-4.22-1.04a.53.53 0 00-.5.12.43.43 0 00-.12.44.48.48 0 00.36.32l4.22 1.03a2.2 2.2 0 00.52.06 1.96 1.96 0 001.91-1.33 1.5 1.5 0 00.06-.27l6.05-1.48.14-.03a1 1 0 011.08.66.81.81 0 01.04.24.92.92 0 01-.74.88zm0 0"/><path d="M15.94 7.3h4.9a.49.49 0 100-.98h-4.9a.49.49 0 000 .98zm0 0"/></svg>
