<svg viewBox="0 0 24 24">
  <path d="M16.25 13.54a1.64 1.64 0 00-1.2-.56 1.7 1.7 0 00-1.21.55l-1.12 1.13-.27-.14a2.29 2.29 0 01-.35-.19 12.22 12.22 0 01-2.92-2.69 7.28 7.28 0 01-.95-1.52c.29-.27.56-.55.82-.82l.3-.3a1.66 1.66 0 000-2.48l-.97-.98-.33-.34-.66-.67a1.67 1.67 0 00-1.19-.52 1.73 1.73 0 00-1.2.52v.01L3.8 5.77a2.64 2.64 0 00-.78 1.67 6.35 6.35 0 00.45 2.65 15.47 15.47 0 002.7 4.58 16.7 16.7 0 005.56 4.4 8.57 8.57 0 003.11.93h.23a2.65 2.65 0 002.04-.88l.01-.02a8.1 8.1 0 01.62-.65l.46-.46a1.8 1.8 0 00.54-1.24 1.73 1.73 0 00-.55-1.23z" vector-effect="non-scaling-stroke" stroke-linecap="round" />
  <path d="M18 10c0-4.99-5-5-5-5M14 1.96s7.04.02 7.04 7.04" stroke-linecap="round" vector-effect="non-scaling-stroke" />
</svg>
