<svg id="icon-exchange" viewBox="0 0 27.45 24"><path d="M2.21 9.22a.63.63 0 00.46-.01l4.5-1.83a.5.5 0 00.26-.69.6.6 0 00-.74-.24L3.54 7.73c1.5-4.02 5.69-6.7 10.5-6.7 5.05 0 9.46 3 10.73 7.32a.59.59 0 00.7.37.51.51 0 00.4-.63c-1.4-4.76-6.26-8.1-11.83-8.1-5.31 0-9.93 2.97-11.6 7.4L1.12 4.44A.6.6 0 00.4 4.1a.5.5 0 00-.37.64.3.3 0 00.03.07l1.83 4.1a.55.55 0 00.32.3z"/><path d="M27.42 19.21a.07.07 0 01-.01-.03l-1.84-4.11a.55.55 0 00-.32-.29.66.66 0 00-.46.01l-4.49 1.83a.5.5 0 00-.31.67.6.6 0 00.75.28l.04-.02 3.15-1.28c-1.52 4.02-5.7 6.7-10.51 6.7-5.05 0-9.46-3-10.73-7.32a.59.59 0 00-.7-.37.51.51 0 00-.41.63C2.98 20.67 7.85 24 13.42 24c5.3 0 9.92-2.96 11.6-7.4l1.32 2.96a.6.6 0 00.74.31.5.5 0 00.34-.66z"/></svg>
