<svg viewBox="0 0 750 471">
  <path d="M697 471H53c-29 0-53-23-53-52V52C0 23 24 0 53 0h644c29 0 53 23 53 52v367c0 29-24 52-53 52zM53 28c-13 0-24 11-24 24v367c0 13 11 24 24 24h644c13 0 24-11 24-24V52c0-13-11-24-24-24H53z"/>
  <path d="M233 406v-23c0-8-5-14-14-14-4 0-9 1-13 6-2-4-6-6-12-6a13 13 0 00-11 5v-4h-7v36h7v-21c0-6 4-9 9-9 6 0 9 3 9 9v21h7v-21c0-6 4-9 9-9s8 3 8 9v21h8zm119-36h-14v-11h-7v11h-8v6h8v17c0 9 3 14 12 14a21 21 0 0010-3l-2-6a12 12 0 01-7 2c-4 0-6-3-6-6v-18h14v-6zm67-1a11 11 0 00-10 5v-4h-7v36h7v-20c0-7 3-10 8-10h5l2-6a26 26 0 00-5-1zm-102 4c-4-3-9-4-15-4-9 0-15 4-15 11 0 6 5 10 13 11h3c5 1 7 3 7 4 0 3-3 5-9 5a20 20 0 01-12-4l-3 6c5 4 11 4 15 4 11 0 16-4 16-11s-4-10-12-11h-4c-3-1-6-2-6-4 0-3 3-5 7-5 5 0 9 2 11 3l4-5zm110 15c0 11 7 19 19 19 5 0 9-1 13-4l-4-6a15 15 0 01-9 3c-7 0-12-5-12-12s5-12 12-12a15 15 0 019 4l4-6c-4-3-8-4-13-4-11-1-19 7-19 18zm-51-19c-10 0-18 7-18 19 0 11 8 19 19 19a23 23 0 0015-5l-4-5a18 18 0 01-11 3c-5 0-10-3-11-9h27v-3c0-12-7-19-17-19zm0 7c5 0 9 3 9 9h-19c1-6 4-9 10-9zm-98 12v-18h-8v4c-2-3-6-5-11-5-11 0-18 8-18 19s7 19 18 19c5 0 9-2 11-6v5h8v-18zm-30 0c0-7 5-12 12-12s11 5 11 12-5 12-11 12c-7 0-12-5-12-12zm281-19a11 11 0 00-10 5v-4h-7v36h7v-20c0-7 3-10 8-10h5l2-6a26 26 0 00-5-1zm-28 19v-18h-8v4c-2-3-6-5-11-5-11 0-18 8-18 19s7 19 18 19c5 0 9-2 11-6v5h8v-18zm-30 0c0-7 4-12 12-12 7 0 11 5 11 12s-5 12-11 12c-8 0-12-5-12-12zm103 0v-33h-8v19c-2-3-6-5-11-5-11 0-18 8-18 19s7 19 18 19c5 0 9-2 11-6v5h8v-18zm-30 0c0-7 5-12 12-12s11 5 11 12-5 12-11 12c-7 0-12-5-12-12zm7-284c-48-47-122-53-176-14a136 136 0 100 222 136 136 0 00216-111 136 136 0 00-40-97zM375 290a120 120 0 010-179 120 120 0 010 179zm-79 30a119 119 0 110-238 118 118 0 0165 19 137 137 0 000 200 118 118 0 01-65 19zm158 0a118 118 0 01-65-19 137 137 0 000-200 118 118 0 0165-19 119 119 0 110 238z"/>
</svg>
