<svg viewBox="0 0 24 24">
  <path d="M19.6 7.7c.1-.4 0-.7-.5-.7h-1.7c-.5 0-.7.3-.8.5 0 0-1 2.2-2.2 3.6-.4.4-.6.5-.8.5 0 0-.2-.1-.2-.5V7.6c0-.4-.2-.6-.6-.6h-2.7c-.3 0-.4.2-.4.4 0 .4.6.5.7 1.7v2.6c0 .6-.1.7-.4.7-.6 0-2-2.2-2.9-4.7-.1-.5-.3-.7-.7-.7H4.6c-.5 0-.6.2-.6.5 0 .4.6 2.8 2.8 5.8 1.4 2 3.5 3.2 5.3 3.2 1.1 0 1.3-.2 1.3-.7v-1.5c0-.6 0-.6.4-.6.3 0 .7.1 1.8 1.1 1.1 1.2 1.3 1.7 2 1.7h1.8c.5 0 .7-.2.6-.7-.2-.5-.8-1.2-1.5-2l-1.2-1.3c-.3-.4-.2-.5 0-.8 0 0 2.1-3 2.3-4" fill="#FFF" fill-rule="evenodd"/>
</svg>
