<svg height="512" viewBox="0 0 511.2 511.2" width="512" xmlns="http://www.w3.org/2000/svg">
  <path d="M39 187.6A42.9 42.9 0 0025.2 219v244.5a47.5 47.5 0 0047.1 47.7H439a47.5 47.5 0 0047.1-47.7V219c0-12-5-23.3-13.7-31.4L278.8 9c-13.1-12-33.2-12-46.3 0L39 187.6zm162.5 155.8L46.9 479.7c-3-4.8-4.6-10.4-4.6-16.2v-244zM72.3 494.2c-4.4 0-8.7-1-12.6-3L215.2 354l24.6 19.2a25.4 25.4 0 0031.6 0L296 354l155.5 137.2c-4 2-8.3 3-12.7 3zm392-14.5L309.8 343.4 469 219.6v244c0 5.7-1.7 11.3-4.7 16.1zM244.1 21.5a17 17 0 0123 0l193.6 178.6 2.2 2.6-202 157.1a8.4 8.4 0 01-10.5 0l-202-157.1c.6-1 1.4-1.8 2.1-2.5z"/>
</svg>
