<svg xmlns="http://www.w3.org/2000/svg" viewBox="0 0 1243 304" fill="rgba(255,255,255,0.08)">
  <path d="M170.4 160.6c-4.2-6-9.2-11.4-15-16-6-6-11-9-15-10-3.6-1-7.5.2-10 3l-47-46a9.93 9.93 0 00-13 15l53 41c-1.1 2.2-1.7 4.6-2 7 0 7 3 13 9 18 4.3 4.1 9.4 7.2 15 9 2.3.6 4.6.9 7 1 8 0 15-2 20-8 2-2 3-6-2-14zm-36-19a5.1 5.1 0 015-1h1c3 1 7 3 12 8 5 4.3 9.4 9.4 13 15 3 5 3 7 3 8s-3 1-8-2c-6.2-2.8-11.9-6.5-17-11-14-12-10-15-9-17zm-62-42a4 4 0 012.9-4.9c.4-.1.7-.1 1.1-.1 1.1-.1 2.2.3 3 1l48 46-1 1-53-40c-.7-.8-1.1-1.9-1-3zm75 76c-4.8-1.4-9.2-3.7-13-7-7-6-9-12-6-19 2 4 6 8 11 13 5.7 4.9 12.1 9 19 12l3 1c-4.6 1.4-9.4 1.4-14 0zM752.19 194.31c-1-.6-2.2-.2-2.7.7-.4.6-.4 1.5 0 2.1 3.6 3.6 12.6 4.6 13.6 4.7 1.1.3 2.2-.3 2.5-1.3.3-1.1-.3-2.2-1.3-2.5-.3-.1-.5-.1-.8-.1-3.3-.3-9.3-1.6-11.3-3.6zM779.79 164.01a2 2 0 000 2.7c2 2 3.3 8 3.6 11.3.3 1.1 1.4 1.6 2.5 1.3.8-.2 1.3-.9 1.4-1.7-.1-1-1-10-4.7-13.6-.8-.8-2-.8-2.8 0zM764.69 179.21a2 2 0 000 2.7l8.2 8.3c.9.7 2.1.5 2.8-.4.5-.7.5-1.7 0-2.4l-8.3-8.2c-.8-.8-2-.8-2.7 0z"/>
  <path d="M757.69 141.91c-.9.9-1.6 1.9-2.3 2.9a23.3 23.3 0 00-25.1 25.1c-1.1.7-2.1 1.4-3 2.3-8.4 8.4-8.4 22 0 30.4a21.4 21.4 0 0022 5.2l20.8 20.9c3.1 3 8.1 3 11.2 0l32.9-32.9c3-3.1 3-8.1 0-11.2l-20.9-21c3.6-11.2-2.5-23.3-13.8-26.9-7.7-2.5-16.1-.5-21.8 5.2zm53.7 45.3c1.6 1.5 1.7 4.1.1 5.7l-.1.1-32.7 32.9a3.98 3.98 0 01-5.7.1l-.1-.1-5.4-5.4 38.6-38.6 5.3 5.3zm-22.1-23.8c0 .1-.1.2-.1.3-.2.6-.1 1.2.3 1.7l.2.2 13.6 13.5-38.6 38.7-13.6-13.6c-.4-.5-1.1-.7-1.8-.6-.1.1-.2.1-.3.2-9.1 3.5-19.3-1.1-22.7-10.2-2.5-6.4-.9-13.7 3.9-18.6l.8-.8c1 4 3.1 7.6 6 10.5.9.7 2.1.5 2.8-.4.5-.7.5-1.7 0-2.4-7.6-7.6-7.6-20 0-27.6 7.6-7.6 20-7.6 27.6 0 .6 1 1.8 1.3 2.7.7 1-.6 1.3-1.8.7-2.7-.2-.3-.4-.5-.6-.7-2.9-2.9-6.5-5-10.5-6l.8-1c6.9-6.8 18.1-6.7 24.9.2 4.8 4.9 6.3 12.2 3.9 18.6zM1076.7 58.2l-21 16-2-1c-1-3-6-5-16-1-7 3-15 8-23 14s-15 13-19 19c-6 9-5 14-3 16l10 13c1 2 6 4 16 0 7-2 15-7 23-13s15-13 19-20c6-8 5-13 3-16l21-17c2.7-1.9 3.4-5.6 1.5-8.3-.2-.2-.3-.4-.5-.7a5.95 5.95 0 00-8.3-1.5c-.2.2-.5.3-.7.5zm-77 50c4.7-7.2 10.8-13.3 18-18 8-5 15-11 22-13 4-2 9-3 11-1 1 1 0 4-2 7l-25 14c-9 6-16 15-20 21h-8c-1-2 1-6 4-10zm44-18c-4.5 5.2-9.5 9.9-15 14-5.3 4.2-11 7.9-17 11 4.5-5.2 9.5-9.9 15-14 5.3-4.2 11-7.9 17-11zm17-2c1 2-1 7-4 11-4 6-10 12-18 18s-15 11-22 13c-4 2-9 3-11 1l-5-7c2.7-.3 5.4-1 8-2 7-3 15-8 23-14s15-13 19-19c1.7-2.5 3.1-5.2 4-8l6 7zm-2-10l3-2 2 3-3 2-2-3zm24-16c.1.8-.3 1.6-1 2l-14 12-3-3 15-12c.8-.1 1.6.3 2 1h1zM502.6 86.4c-5-5-12-12-20-17-7.5-4.7-15.6-8.4-24-11-8-3-14-2-16 2-4 6-6 16-4 28 1.2 8.5 3.2 16.9 6 25l-14 22c-.4.6-.4 1.4 0 2h1v1c3.9 2.3 8.6 3 13 2 .8.1 1.6-.3 2-1l11-17c8.5-.8 16.9-2.5 25-5 12-4 20-9 25-15 2-4 0-9-5-16zm-45-24c6 1 15 5 23 11 6.7 4.9 13.1 10.2 19 16 4 5 5 9 4 10s-5 2-11 0c-7-1-15-5-23-10a81.03 81.03 0 01-19-17c-4-5-6-9-5-10s6-2 12 0zm-1 56c-.8-.1-1.6.3-2 1l-11 17c-2.7.5-5.5.1-8-1l13-20c.4-.6.4-1.4 0-2-3-9-9-30-5-44 1.1 2.1 2.5 4.2 4 6 11.8 13.4 27 23.4 44 29 2.3.6 4.6.9 7 1-11 9-33 12-42 13z"/>
</svg>
