<svg xmlns="http://www.w3.org/2000/svg" xmlns:xlink="http://www.w3.org/1999/xlink" viewBox="0 0 102 32">
  <g data-name="Subtraction 1" fill="none">
    <path d="M63.74 31.6V30c10.1-.26 19.45-1.44 26.32-3.33 6.9-1.9 10.7-4.35 10.7-6.92 0-1.39-1.09-2.74-3.24-4.01a34.34 34.34 0 00-8.86-3.28c-7.81-1.94-18.2-3.02-29.24-3.02-11.37 0-21.97 1.13-29.84 3.18h-1.35c8.3-2.52 19.9-3.97 31.8-3.97 11.26 0 21.85 1.27 29.8 3.56a32.33 32.33 0 018.92 3.8c2.16 1.45 3.25 2.97 3.25 4.53 0 1.48-.98 2.89-2.92 4.2a28.72 28.72 0 01-8.06 3.41c-7 2-16.68 3.22-27.28 3.45z"/>
    <path d="M63.74 31.6V30c10.1-.26 19.45-1.44 26.32-3.33 6.9-1.9 10.7-4.35 10.7-6.92 0-1.4-1.09-2.74-3.24-4.01-2.08-1.23-5.07-2.33-8.86-3.28-7.81-1.94-18.2-3.02-29.24-3.02-11.37 0-21.97 1.13-29.84 3.18h-1.35c8.31-2.52 19.9-3.97 31.8-3.97 11.26 0 21.85 1.27 29.8 3.56 3.82 1.1 6.82 2.38 8.92 3.8 2.16 1.45 3.25 2.97 3.25 4.53 0 1.48-.98 2.89-2.92 4.2-1.88 1.28-4.59 2.42-8.06 3.42-7 1.99-16.68 3.21-27.28 3.44z" fill="#ffffff"/>
  </g>
  <g fill="#ffffff">
    <path data-name="Logo ПосудаМАРТ" d="M9.42 9.98V23.7H8.26V11h-7.1v12.7H0V9.98zm6.34 13.8a4.37 4.37 0 01-2.2-.55 4.03 4.03 0 01-1.53-1.53 4.36 4.36 0 01-.56-2.2 4.36 4.36 0 01.56-2.21 3.97 3.97 0 011.54-1.52 4.42 4.42 0 012.19-.55 4.42 4.42 0 012.2.55 3.91 3.91 0 011.52 1.52 4.4 4.4 0 01.55 2.2 4.4 4.4 0 01-.55 2.21 3.97 3.97 0 01-1.53 1.53 4.37 4.37 0 01-2.19.55zm0-1a3.18 3.18 0 001.6-.41 2.84 2.84 0 001.12-1.17 3.59 3.59 0 00.4-1.71 3.59 3.59 0 00-.4-1.71 2.84 2.84 0 00-1.11-1.16 3.18 3.18 0 00-1.61-.41 3.18 3.18 0 00-1.6.4 2.9 2.9 0 00-1.13 1.17 3.53 3.53 0 00-.4 1.71 3.53 3.53 0 00.4 1.71 2.9 2.9 0 001.12 1.16 3.18 3.18 0 001.61.41zm9.58 1a4.54 4.54 0 01-2.23-.54 3.94 3.94 0 01-1.54-1.53 4.4 4.4 0 01-.56-2.22 4.36 4.36 0 01.56-2.2 3.95 3.95 0 011.54-1.52 4.54 4.54 0 012.23-.55 4.32 4.32 0 011.95.43 3.23 3.23 0 011.35 1.24l-.85.57a2.65 2.65 0 00-1.05-.93 3.13 3.13 0 00-1.4-.32 3.3 3.3 0 00-1.64.41 2.87 2.87 0 00-1.13 1.16 3.53 3.53 0 00-.41 1.71 3.52 3.52 0 00.4 1.72 2.88 2.88 0 001.14 1.16 3.3 3.3 0 001.64.4 3.2 3.2 0 001.4-.3 2.6 2.6 0 001.05-.93l.85.58a3.22 3.22 0 01-1.36 1.24 4.34 4.34 0 01-1.94.42zm11.87-8.5l-4.2 9.43a4.02 4.02 0 01-1.18 1.68 2.65 2.65 0 01-1.62.5 3.3 3.3 0 01-1.13-.2 2.46 2.46 0 01-.92-.57l.53-.85a2.1 2.1 0 001.54.64 1.55 1.55 0 00.98-.32 2.9 2.9 0 00.76-1.09l.37-.81-3.76-8.4h1.18l3.17 7.15 3.17-7.15zm8.98 7.43v3.02h-1.07V23.7h-7.54v2.03h-1.07v-3.02H37q.85-.05 1.15-1.25a18.27 18.27 0 00.42-3.36l.11-2.81h6.21v7.42zm-6.59-4.54a20.97 20.97 0 01-.3 2.95 2.51 2.51 0 01-.8 1.59h5.25v-6.42H39.7zm11.06-2.95a3.56 3.56 0 012.52.83 3.18 3.18 0 01.88 2.44v5.21h-1.08V22.4a2.6 2.6 0 01-1.13 1.02 3.95 3.95 0 01-1.77.37 3.46 3.46 0 01-2.24-.67 2.17 2.17 0 01-.83-1.78 2.15 2.15 0 01.77-1.73 3.8 3.8 0 012.48-.65h2.67v-.52a2.16 2.16 0 00-.61-1.65 2.51 2.51 0 00-1.78-.57 4.51 4.51 0 00-1.53.26 3.87 3.87 0 00-1.27.73l-.5-.85a4.54 4.54 0 011.53-.84 5.98 5.98 0 011.89-.29zm-.4 7.67a3 3 0 001.64-.44 2.63 2.63 0 001.03-1.28V19.8h-2.64q-2.16 0-2.16 1.5a1.38 1.38 0 00.56 1.16 2.55 2.55 0 001.57.43zM64.74 23.7l2.88-20.82-5.71 11.4h-.87l-6.7-11.42 3.83 20.84h-1.83L52.51 0h2.1l6.91 11.98L67.54 0h1.88l-2.87 23.7zm7.04-8.64a4.17 4.17 0 012.9.9 3.5 3.5 0 011 2.73v5.01h-1.9v-1.04a2.33 2.33 0 01-1.04.86 4.1 4.1 0 01-1.64.3 4.02 4.02 0 01-1.68-.33 2.6 2.6 0 01-1.12-.92 2.31 2.31 0 01-.4-1.32 2.26 2.26 0 01.87-1.85 4.25 4.25 0 012.7-.7h2.2v-.12a1.75 1.75 0 00-.53-1.38 2.32 2.32 0 00-1.6-.48 4.6 4.6 0 00-1.41.23 3.48 3.48 0 00-1.18.62l-.78-1.46a4.86 4.86 0 011.61-.78 7.19 7.19 0 012-.27zm-.27 7.3a2.58 2.58 0 001.34-.34 1.87 1.87 0 00.82-.99v-.99h-2.06q-1.73 0-1.73 1.14a1.02 1.02 0 00.43.86 1.98 1.98 0 001.2.32zm10.74-7.3a4.54 4.54 0 012.23.54 3.92 3.92 0 011.54 1.54 4.57 4.57 0 01.56 2.29 4.62 4.62 0 01-.56 2.3 3.9 3.9 0 01-1.54 1.54 4.54 4.54 0 01-2.23.54 3.45 3.45 0 01-2.74-1.15l-.1 8.94h-2l.1-16.44h1.9v1.12a3.1 3.1 0 011.23-.91 4.13 4.13 0 011.6-.3zm-.23 7.04a2.42 2.42 0 001.82-.73 2.67 2.67 0 00.71-1.94 2.67 2.67 0 00-.71-1.94 2.42 2.42 0 00-1.82-.73 2.57 2.57 0 00-1.3.33 2.37 2.37 0 00-.9.93 2.86 2.86 0 00-.34 1.41 2.86 2.86 0 00.33 1.4 2.37 2.37 0 00.91.94 2.57 2.57 0 001.3.33zm12.36-5.25h-3v6.85h-2v-6.85h-3v-1.7h8z"/>
  </g>
</svg>
